<svg width="82" height="82" viewBox="0 0 82 82" fill="none" xmlns="http://www.w3.org/2000/svg">
<g clip-path="url(#clip0_1_31)">
<path d="M41.3715 0.360779C19.0808 0.360779 0.948334 18.4911 0.948334 40.7753C0.948334 63.0595 19.0808 81.1899 41.3715 81.1899C63.6622 81.1899 81.7947 63.0595 81.7947 40.7753C81.7947 18.4911 63.6622 0.360779 41.3715 0.360779ZM41.3715 77.8221C20.9395 77.8221 4.31688 61.203 4.31688 40.7753C4.31688 20.3477 20.9395 3.72861 41.3715 3.72861C61.8036 3.72861 78.4262 20.3477 78.4262 40.7753C78.4262 61.203 61.8036 77.8221 41.3715 77.8221Z" fill="white"/>
<path d="M57.4419 39.3594L33.8618 24.204C33.3453 23.8669 32.6775 23.8488 32.1446 24.1414C31.6017 24.4374 31.2662 25.0033 31.2662 25.6199V55.9308C31.2662 56.5474 31.6017 57.1132 32.1446 57.4093C32.3946 57.5458 32.6742 57.6148 32.9505 57.6148C33.2663 57.6148 33.5855 57.5259 33.8618 57.3467L57.4419 42.1913C57.9223 41.8822 58.215 41.3476 58.215 40.7753C58.215 40.2031 57.9223 39.6687 57.4419 39.3594ZM34.6347 52.8457V28.705L53.4154 40.7753L34.6347 52.8457Z" fill="white"/>
</g>
<defs>
<clipPath id="clip0_1_31">
<rect width="80.8464" height="80.8291" fill="white" transform="translate(0.948334 0.360779)"/>
</clipPath>
</defs>
</svg>
